<svg id="Layer_1" data-name="Layer 1" xmlns="http://www.w3.org/2000/svg" viewBox="0 0 1681 604"><defs><style>.cls-1{fill:#fff;}</style></defs><title>dfs</title><path class="cls-1" d="M-676-33.93c-5.83-1.25-11.73-2.22-17.47-3.78-48.07-13.1-81.29-58-79-106.69,2.41-51.81,38.74-93.59,88.95-102.31,68.75-11.93,130.74,44.89,124.78,114.38-4.37,51-42.37,90.71-93.41,97.55a17.93,17.93,0,0,0-2.83.86h-21Z" transform="translate(1047.99 637.93)"/><path class="cls-1" d="M633-387.93c-0.84,3.69-1.56,7.41-2.55,11.05-8.2,30-28.48,48.42-57.77,55.73-53.76,13.42-102.51,1.51-146-32.61-2.34-1.84-4.54-3.85-7.28-6.19l28.83-34.28c8.38,5.92,16.18,11.88,24.41,17.18,23.45,15.08,49.15,21,76.76,17a57.18,57.18,0,0,0,18.29-6.12c14.36-7.64,19.88-22.21,15.35-37.85C580.49-413,574-418.59,566-421.79c-12.47-5-25.3-9.12-38.14-13.09-14-4.32-28.17-7.91-42.18-12.13a101.15,101.15,0,0,1-14.29-5.88c-28.7-13.72-41.89-36.79-40.76-68.31,1.18-33.24,20.08-60.51,52.62-71.09,51.51-16.75,98.34-5,141.73,27.17l-26.11,36.84c-2.79-1.87-5.34-3.61-7.93-5.3-18.93-12.36-39-21.66-62-22.8-10.25-.51-20.34.24-29.85,4.48-15.55,6.94-22.59,20.79-19.11,37,2,9.11,7.87,15.29,15.79,18.83A314.62,314.62,0,0,0,528.39-484c17.73,5.65,35.76,10.39,53.44,16.19a81.81,81.81,0,0,1,30.27,18,62.64,62.64,0,0,1,19.95,37.63,23.72,23.72,0,0,0,1,3.25v21Z" transform="translate(1047.99 637.93)"/><path class="cls-1" d="M-683-637.93c3.5,0.92,7,1.77,10.48,2.77,33.52,9.59,54.34,40.26,51.62,76-2.46,32.31-29.16,59.81-62.16,64-38.24,4.89-74.7-22.42-79.89-59.84-5.54-39.95,20.17-75.57,59.19-82.06a17.53,17.53,0,0,0,2.75-.93h18Z" transform="translate(1047.99 637.93)"/><path class="cls-1" d="M633-127.93c-6.33,23.2-24.2,30.67-45.45,31.64-22.29,1-44.65.29-67,.31a6.65,6.65,0,0,1-1.57-.45v-141.1c1.9-.08,3.52-0.22,5.15-0.22,17.83,0,35.69-.52,53.49.21a92,92,0,0,1,26.28,4.83c12.39,4.33,19.91,13.72,21,27.22,1.21,14.61-4.34,26-17.07,33.61-1.28.76-2.58,1.47-4.79,2.73,15.07,4.64,26.15,12.74,29.92,28.22v13Zm-98.5-32.91c0,16.2.11,31-.08,45.81,0,3.77,1.15,4.84,4.85,4.79,14-.19,28,0.44,42-0.28a70.19,70.19,0,0,0,22.68-4.7c10.43-4.28,14.7-14.59,12.23-25.67-2.61-11.74-11.6-17-22.12-17.8C574.53-160.23,554.9-160.19,534.51-160.83Zm0.19-14.43c17.25,0,34,.3,50.78-0.21,4.23-.13,8.65-2.4,12.52-4.52,8.34-4.58,11.34-12.35,10.84-21.47s-5.22-15.61-13.66-18.5A61.3,61.3,0,0,0,577.65-223c-12.81-.44-25.65-0.15-38.47-0.13-1.44,0-2.88.2-4.47,0.32v47.56Z" transform="translate(1047.99 637.93)"/><path class="cls-1" d="M-1048-379.93c0.49-1.37,1-2.73,1.46-4.13a37.87,37.87,0,0,1,40.93-27.08c17.84,1.93,32.17,16.56,33.54,34.22,1.47,19-10.3,35.63-28.64,40.37A38,38,0,0,1-1046-361.38c-0.62-1.86-1.3-3.7-1.94-5.55Q-1048-373.43-1048-379.93Z" transform="translate(1047.99 637.93)"/><path class="cls-1" d="M-246.46-320.31V-595.42c1.88-.1,3.63-0.27,5.38-0.27q47.74,0,95.48,0c36.18,0,69.74,8.71,98.36,31.65,36.85,29.53,52.17,68.84,49.61,115.39-1.88,34.09-14.5,63.8-39.1,87.77-24.13,23.5-53.43,37.77-86.84,39.54-40.38,2.14-80.93,1.12-121.4,1.46A7.75,7.75,0,0,1-246.46-320.31Zm48.63-43.9c21.32,0,42.15.6,62.92-.18,19.35-.73,37.36-6.78,52.73-18.94,24.75-19.6,34.57-46.09,34.07-76.9-0.82-50.56-37.3-88.49-87.76-90.72-19.79-.88-39.63-0.35-59.45-0.44a17.23,17.23,0,0,0-2.5.37v186.81Z" transform="translate(1047.99 637.93)"/><path class="cls-1" d="M-644.67-369.45c0.22-59.21,48.38-107.15,107.41-106.9,59.32,0.25,107.17,48.25,107,107.32a107.38,107.38,0,0,1-107.89,107C-597-262.42-644.88-310.72-644.67-369.45Z" transform="translate(1047.99 637.93)"/><path class="cls-1" d="M325.61-595.4v43.79H169.28v75.32H307.67v44.17H169.07v112H120.91V-595.4h204.7Z" transform="translate(1047.99 637.93)"/><path class="cls-1" d="M-802.13-443.42a71.74,71.74,0,0,1,71.83,71.8A71.87,71.87,0,0,1-801.91-300a71.91,71.91,0,0,1-71.84-71.86A71.76,71.76,0,0,1-802.13-443.42Z" transform="translate(1047.99 637.93)"/><path class="cls-1" d="M-913.28-242.16a71.32,71.32,0,0,1,71.4,72,71.49,71.49,0,0,1-71.79,71.2,71.48,71.48,0,0,1-71.4-72.1A71.33,71.33,0,0,1-913.28-242.16Z" transform="translate(1047.99 637.93)"/><path class="cls-1" d="M250.54-95.94c-5.38,0-10.18.23-14.93-.15-1.28-.1-2.91-1.83-3.54-3.2-4.53-9.82-9-19.68-13.14-29.65-1.34-3.2-3-4.49-6.61-4.46q-34,.26-68,0c-3.62,0-5.24,1.26-6.59,4.46-4.14,9.81-8.73,19.42-12.94,29.2-1.21,2.82-2.69,4.15-5.91,3.89-3.8-.31-7.64-0.07-12.26-0.07,0.84-1.93,1.45-3.4,2.1-4.84Q139-167.62,169.12-234.5c1.42-3.16,3.17-4,6.61-4.45,8-1,11.67,2.21,14.93,9.62,18.88,42.94,38.45,85.58,57.77,128.32C249.1-99.53,249.68-98,250.54-95.94ZM210.46-148l-32-71.92L146.23-148h64.23Z" transform="translate(1047.99 637.93)"/><path class="cls-1" d="M-904.62-592.15a38,38,0,0,1,38.33,37.84,38.25,38.25,0,0,1-38.09,38.21,38.06,38.06,0,0,1-38-37.74A37.72,37.72,0,0,1-904.62-592.15Z" transform="translate(1047.99 637.93)"/><path class="cls-1" d="M-246.38-96.32V-237.46h15.6V-111h79.52v14.73h-95.12Z" transform="translate(1047.99 637.93)"/></svg>